<?xml version="1.0" standalone="no"?>
<!DOCTYPE svg PUBLIC "-//W3C//DTD SVG 20010904//EN"
 "http://www.w3.org/TR/2001/REC-SVG-20010904/DTD/svg10.dtd">
<svg version="1.0" xmlns="http://www.w3.org/2000/svg"
 width="128.000000pt" height="128.000000pt" viewBox="0 0 128.000000 128.000000"
 preserveAspectRatio="xMidYMid meet">
<metadata>
Created by potrace 1.11, written by Peter Selinger 2001-2013
</metadata>
<g transform="translate(0.000000,128.000000) scale(0.100000,-0.100000)"
fill="#000000" stroke="none">
<path d="M485 1215 c-216 -47 -378 -192 -446 -400 -33 -99 -33 -251 0 -350 60
-183 194 -319 375 -380 149 -50 291 -41 439 27 79 37 82 33 -45 58 -166 33
-312 164 -369 331 -18 54 -20 80 -17 161 4 85 9 105 41 173 75 157 231 265
412 285 l60 6 -75 37 c-127 62 -251 79 -375 52z"/>
<path d="M1144 1067 c-9 -28 -14 -32 -49 -35 l-39 -3 29 -23 c27 -22 28 -26
18 -60 -13 -42 -12 -43 27 -15 l28 22 33 -23 32 -24 -6 26 c-4 15 -9 32 -12
40 -3 7 9 23 27 36 l33 22 -42 0 c-38 0 -42 3 -48 30 -9 42 -21 45 -31 7z"/>
<path d="M707 965 c-5 -11 -13 -15 -24 -11 -15 6 -16 5 -1 -11 8 -10 13 -25
10 -33 -4 -13 -3 -13 10 -2 11 9 18 10 23 2 11 -18 23 -11 18 10 -3 11 0 20 6
20 6 0 11 5 11 11 0 5 -5 7 -11 4 -6 -4 -16 1 -23 10 -12 17 -13 17 -19 0z"/>
<path d="M840 910 c-22 -5 -49 -24 -71 -49 -26 -29 -44 -40 -60 -39 -18 2 -28
-5 -40 -29 -9 -18 -19 -30 -22 -27 -10 10 -95 -34 -106 -55 -31 -56 32 -109
115 -97 37 5 44 2 58 -19 12 -19 25 -25 51 -25 18 0 37 5 40 10 4 7 24 8 50 5
25 -4 51 -2 64 4 17 9 26 9 43 -4 13 -8 43 -15 70 -15 40 0 54 5 80 30 17 17
38 30 47 30 26 0 41 21 41 55 0 38 -16 55 -50 55 -14 0 -30 8 -37 19 -6 10
-25 21 -42 24 -22 5 -31 12 -31 25 0 30 -39 73 -84 93 -44 20 -62 21 -116 9z"/>
<path d="M941 538 c-1 -10 -7 -18 -15 -18 -11 0 -12 -5 -3 -24 7 -14 16 -21
21 -16 5 5 15 6 24 3 10 -4 13 -2 8 6 -4 6 -2 18 4 26 10 12 9 15 -8 15 -11 0
-23 6 -25 13 -3 7 -6 5 -6 -5z"/>
<path d="M645 474 c-16 -14 -40 -30 -53 -35 -28 -11 -26 -42 3 -47 11 -2 27
-6 35 -9 32 -13 135 -9 163 6 29 16 37 41 13 41 -8 0 -29 16 -47 35 -40 42
-72 45 -114 9z"/>
<path d="M941 404 c-11 -14 -25 -23 -30 -20 -5 4 -16 -2 -23 -12 -7 -10 -25
-22 -40 -25 -31 -8 -45 -41 -28 -62 7 -8 28 -15 47 -15 19 0 41 -7 50 -16 9
-8 23 -12 32 -9 27 11 95 13 113 4 17 -9 34 -4 91 27 34 19 34 57 0 62 -20 3
-34 15 -87 71 -30 32 -98 29 -125 -5z"/>
</g>
</svg>
